<mxfile host="app.diagrams.net" modified="2023-04-28T08:42:19.685Z" agent="Mozilla/5.0 (Windows NT 10.0; WOW64) AppleWebKit/537.36 (KHTML, like Gecko) Chrome/96.0.4664.45 Safari/537.36" etag="4s0001-gXCwFzhjt1odA" version="21.2.3" type="github">
  <diagram name="第 1 页" id="Np193QciclchziamgRV2">
    <mxGraphModel dx="989" dy="527" grid="1" gridSize="7" guides="1" tooltips="1" connect="1" arrows="1" fold="1" page="1" pageScale="1" pageWidth="827" pageHeight="1169" math="0" shadow="0">
      <root>
        <mxCell id="0" />
        <mxCell id="1" parent="0" />
        <mxCell id="oX5z3cnjNfNshfQTSJ5x-1" value="酒店交易业务管理系统" style="rounded=0;whiteSpace=wrap;html=1;" vertex="1" parent="1">
          <mxGeometry x="98" y="112" width="170" height="60" as="geometry" />
        </mxCell>
        <mxCell id="oX5z3cnjNfNshfQTSJ5x-2" value="酒店交易小程序" style="rounded=0;whiteSpace=wrap;html=1;" vertex="1" parent="1">
          <mxGeometry x="357" y="112" width="120" height="60" as="geometry" />
        </mxCell>
        <mxCell id="oX5z3cnjNfNshfQTSJ5x-3" value="" style="rounded=0;whiteSpace=wrap;html=1;" vertex="1" parent="1">
          <mxGeometry x="563.5" y="112" width="175" height="161" as="geometry" />
        </mxCell>
        <mxCell id="oX5z3cnjNfNshfQTSJ5x-4" value="微信开放平台API" style="text;html=1;strokeColor=none;fillColor=none;align=center;verticalAlign=middle;whiteSpace=wrap;rounded=0;" vertex="1" parent="1">
          <mxGeometry x="602" y="133" width="98" height="14" as="geometry" />
        </mxCell>
        <mxCell id="oX5z3cnjNfNshfQTSJ5x-5" value="小程序登录" style="rounded=0;whiteSpace=wrap;html=1;" vertex="1" parent="1">
          <mxGeometry x="591" y="162" width="130" height="27" as="geometry" />
        </mxCell>
        <mxCell id="oX5z3cnjNfNshfQTSJ5x-6" value="手机号授权" style="rounded=0;whiteSpace=wrap;html=1;" vertex="1" parent="1">
          <mxGeometry x="591" y="196" width="130" height="27" as="geometry" />
        </mxCell>
        <mxCell id="oX5z3cnjNfNshfQTSJ5x-7" value="小程序二维码" style="rounded=0;whiteSpace=wrap;html=1;" vertex="1" parent="1">
          <mxGeometry x="591" y="231" width="130" height="27" as="geometry" />
        </mxCell>
      </root>
    </mxGraphModel>
  </diagram>
</mxfile>
